{"title":"The Inevitable Defeat of Mister &amp; Pete 2013 DVDrip English K","uid":10943297,"size":1486159757,"categoryP":"video","categoryS":"movies","magnet":"?xt=urn:btih:5db78f02f911c004c0fc2ff4ed6a0161fc8ca002&amp;dn=The+Inevitable+Defeat+of+Mister+%26amp%3B+Pete+2013+DVDrip+English+K&amp;tr=udp%3A%2F%2Ftracker.openbittorrent.com%3A80&amp;tr=udp%3A%2F%2Fopen.demonii.com%3A1337&amp;tr=udp%3A%2F%2Ftracker.coppersurfer.tk%3A6969&amp;tr=udp%3A%2F%2Fexodus.desync.com%3A6969","seeders":1,"leechers":1,"uploader":"Klambake","files":-1,"time":1409577063,"description":"With: Anthony Mackie, Jeffrey Wright and Adewale Akinnuoye-Agbaje\n\nNadat zijn drugsverslaafde moeder is gearresteerd, blijft een arm 14-jarig jongetje alleen achter. Hij raakt bevriend met een 9-jarig jongetje dat van huis is weggelopen en samen proberen ze de zomer te overleven in het tumultueuze Brooklyn.\n\nA coming-of-age story about two inner city boys who are left to fend for themselves over the summer after their mothers are taken away by the authorities.\n &lt;a href=&quot;\nhttp://www.imdb.com/title/tt2113075&quot; rel=&quot;nofollow&quot; target=&quot;_NEW&quot;&gt;\nhttp://www.imdb.com/title/tt2113075&lt;/a&gt;\t\n\n--------------------- Dutch Friends 4ever ---------------------\n---------------------------------------------------------------\n- Bezoek ook eens mijn vrienden op: &lt;a href=&quot; http://www.Film-Test.nl&quot; rel=&quot;nofollow&quot; target=&quot;_NEW&quot;&gt; http://www.Film-Test.nl&lt;/a&gt; --\n----- voor mijn Nederlandse Sync. ondertitels ---- en meer ----\n------- http://www.Film-Test.nl ---- Over Films en meer -------\n---------------------------------------------------------------\n &lt;a href=&quot;\nhttp://i.imgur.com/ROLFVfS.jpg&quot; rel=&quot;nofollow&quot; target=&quot;_NEW&quot;&gt;\nhttp://i.imgur.com/ROLFVfS.jpg&lt;/a&gt; &lt;a href=&quot;\nhttp://i.imgur.com/NhqPM39.jpg&quot; rel=&quot;nofollow&quot; target=&quot;_NEW&quot;&gt;\nhttp://i.imgur.com/NhqPM39.jpg&lt;/a&gt; &lt;a href=&quot;\nhttp://i.imgur.com/gCDy0DT.jpg&quot; rel=&quot;nofollow&quot; target=&quot;_NEW&quot;&gt;\nhttp://i.imgur.com/gCDy0DT.jpg&lt;/a&gt;\n\nGeneral:\n\nComplete name                            : The Inevitable Defeat ofMister &amp; Pete.avi\nFormat                                   : AVI\nFormat/Info                              : Audio Video Interleave\nFile size                                : 1.38 GiB\nDuration                                 : 1h 48mn\nOverall bit rate                         : 1 827 Kbps\n\nVideo:\n\nFormat                                   : MPEG-4 Visual\nFormat profile                           : Simple@L3\nFormat settings, BVOP                    : No\nFormat settings, QPel                    : No\nFormat settings, GMC                     : No warppoints\nFormat settings, Matrix                  : Default (H.263)\nCodec ID                                 : XVID\nCodec ID/Hint                            : XviD\nDuration                                 : 1h 48mn\nBit rate                                 : 1 368 Kbps\nWidth                                    : 720 pixels\nHeight                                   : 304 pixels\nDisplay aspect ratio                     : 2.35:1\nFrame rate                               : 25.000 fps\nColor space                              : YUV\nChroma subsampling                       : 4:2:0\nBit depth                                : 8 bits\nScan type                                : Progressive\nCompression mode                         : Lossy\nBits/(Pixel*Frame)                       : 0.250\nStream size                              : 1.04 GiB (75%)\nWriting library                          : XviD 1.1.2 (UTC 2006-11-01)\n\nAudio:\n\nFormat                                   : AC-3\nFormat/Info                              : Audio Coding 3\nMode extension                           : CM (complete main)\nFormat settings, Endianness              : Big\nCodec ID                                 : 2000\nDuration                                 : 1h 48mn\nSource duration                          : 1h 48mn\nBit rate mode                            : Constant\nBit rate                                 : 448 Kbps\nChannel(s)                               : 6 channels\nChannel positions                        : Front: L C R, Side: L R, LFE\nSampling rate                            : 48.0 KHz\nBit depth                                : 16 bits\nCompression mode                         : Lossy\nStream size                              : 347 MiB (25%)\nAlignment                                : Aligned on interleaves\nInterleave, duration                     : 32 ms (0.80 video frame)\n\n","torrent":{"xt":"urn:btih:5db78f02f911c004c0fc2ff4ed6a0161fc8ca002","amp;dn":"The+Inevitable+Defeat+of+Mister+%26amp%3B+Pete+2013+DVDrip+English+K","amp;tr":["udp%3A%2F%2Ftracker.openbittorrent.com%3A80","udp%3A%2F%2Fopen.demonii.com%3A1337","udp%3A%2F%2Ftracker.coppersurfer.tk%3A6969","udp%3A%2F%2Fexodus.desync.com%3A6969"],"infoHash":"5db78f02f911c004c0fc2ff4ed6a0161fc8ca002","infoHashBuffer":{"type":"Buffer","data":[93,183,143,2,249,17,192,4,192,252,47,244,237,106,1,97,252,140,160,2]},"announce":[],"urlList":[]}}